<svg width="488" height="488" viewBox="0 0 488 488" fill="none" xmlns="http://www.w3.org/2000/svg"><rect x="185.5" y="185.5" width="117" height="117" rx="58.5" stroke="black" stroke-width="117"/><path d="M248.623 271.618C248.623 267.912 247.297 265.024 244.646 262.955C242.044 260.885 237.44 258.743 230.837 256.529C224.234 254.316 218.835 252.174 214.642 250.104C201.001 243.414 194.181 234.222 194.181 222.527C194.181 216.703 195.868 211.578 199.242 207.15C202.664 202.674 207.484 199.209 213.702 196.754C219.92 194.251 226.909 193 234.669 193C242.236 193 249.008 194.348 254.985 197.043C261.01 199.738 265.686 203.588 269.011 208.594C272.337 213.551 274 219.23 274 225.631H248.695C248.695 221.348 247.37 218.027 244.719 215.668C242.116 213.31 238.573 212.131 234.091 212.131C229.56 212.131 225.969 213.142 223.318 215.163C220.715 217.136 219.414 219.663 219.414 222.743C219.414 225.439 220.86 227.893 223.752 230.107C226.644 232.273 231.729 234.535 239.007 236.893C246.285 239.203 252.262 241.706 256.937 244.401C268.312 250.947 274 259.971 274 271.473C274 280.666 270.53 287.885 263.589 293.131C256.648 298.377 247.129 301 235.03 301C226.499 301 218.763 299.484 211.822 296.452C204.93 293.372 199.724 289.184 196.206 283.89C192.735 278.548 191 272.412 191 265.481H216.449C216.449 271.112 217.895 275.275 220.787 277.971C223.728 280.618 228.475 281.941 235.03 281.941C239.224 281.941 242.526 281.051 244.936 279.27C247.394 277.441 248.623 274.89 248.623 271.618Z" fill="white"/><path d="M288.519 194.5H252.861L269.877 245.39L270.249 246.5L269.877 247.61L252.861 298.5H288.519L307.279 246.5L288.519 194.5Z" fill="white" stroke="black" stroke-width="7"/></svg>
