<svg width="231" height="230" viewBox="0 0 231 230" fill="none" xmlns="http://www.w3.org/2000/svg">
<g clip-path="url(#clip0_1765:18)">
<path d="M172.164 115.582C172.164 84.3326 146.831 59 115.582 59C84.3326 59 59 84.3326 59 115.582C59 146.831 84.3326 172.164 115.582 172.164C146.831 172.164 172.164 146.831 172.164 115.582Z" stroke="black" stroke-width="117"/>
<path d="M120.471 142.713C120.471 139.128 119.188 136.335 116.624 134.334C114.108 132.332 109.655 130.26 103.268 128.118C96.8817 125.978 91.6597 123.906 87.6042 121.904C74.4104 115.433 67.814 106.543 67.814 95.2313C67.814 89.5982 69.4457 84.6412 72.7091 80.3584C76.0189 76.0292 80.6808 72.6778 86.695 70.3033C92.7091 67.8823 99.469 66.6724 106.975 66.6724C114.293 66.6724 120.843 67.9762 126.624 70.5828C132.452 73.1894 136.975 76.9132 140.191 81.7551C143.407 86.5496 145.016 92.0424 145.016 98.2335H120.541C120.541 94.0909 119.259 90.8788 116.695 88.5972C114.177 86.3165 110.751 85.1761 106.415 85.1761C102.033 85.1761 98.5598 86.154 95.9957 88.1087C93.478 90.017 92.2197 92.4612 92.2197 95.4402C92.2197 98.0478 93.6183 100.421 96.4155 102.563C99.2126 104.658 104.131 106.846 111.17 109.126C118.21 111.361 123.991 113.781 128.512 116.388C139.514 122.719 145.016 131.448 145.016 142.572C145.016 151.464 141.66 158.446 134.946 163.52C128.233 168.594 119.026 171.131 107.324 171.131C99.0724 171.131 91.59 169.665 84.8766 166.733C78.2106 163.753 73.1753 159.703 69.7726 154.582C66.4154 149.416 64.7373 143.481 64.7373 136.777H89.3519C89.3519 142.223 90.7505 146.25 93.5477 148.857C96.3923 151.418 100.984 152.697 107.324 152.697C111.38 152.697 114.574 151.836 116.905 150.114C119.282 148.345 120.471 145.877 120.471 142.713Z" fill="white"/>
<path d="M159.059 68.123H124.57L141.028 117.345L141.388 118.418L141.028 119.492L124.57 168.713H159.059L177.204 118.418L159.059 68.123Z" fill="white" stroke="black" stroke-width="7"/>
</g>
<defs>
<clipPath id="clip0_1765:18">
<rect width="231" height="230" fill="white"/>
</clipPath>
</defs>
</svg>
